<svg xmlns="http://www.w3.org/2000/svg" xmlns:xlink="http://www.w3.org/1999/xlink" viewBox="0 0 990 1500">
  <defs>
    <style>
      .cls-1 {
        clip-path: url(#clip-traka_3-2);
      }

      .cls-2 {
        fill: rgba(0,0,0,0.8);
      }

      .cls-3 {
        fill: rgba(88,86,69,0.43);
      }

      .cls-4 {
        font-size: 28px;
      }

      .cls-4, .cls-5 {
        font-family: AlteDIN1451Mittelschrift, "Alte DIN 1451 Mittelschrift";
      }

      .cls-13, .cls-5 {
        font-size: 16px;
        text-decoration: underline;
      }

      .cls-6 {
        fill: rgba(21,21,21,0.75);
        font-size: 33px;
      }

      .cls-12, .cls-13, .cls-6, .cls-7, .cls-8 {
        font-family: DINNextLTPro-Bold, DIN Next LT Pro;
        font-weight: 700;
      }

      .cls-11, .cls-7 {
        fill: #e5e5e5;
      }

      .cls-7 {
        font-size: 30px;
      }

      .cls-10, .cls-8 {
        fill: #fff;
      }

      .cls-8 {
        font-size: 32px;
      }

      .cls-12, .cls-13, .cls-9 {
        fill: rgba(21,21,21,0.85);
      }

      .cls-9 {
        font-size: 26px;
      }

      .cls-10, .cls-11 {
        font-size: 20px;
        font-family: DINNextLTPro-Regular, DIN Next LT Pro;
        font-weight: 400;
      }

      .cls-12 {
        font-size: 22px;
      }

      .cls-14 {
        fill: #dcdddf;
      }

      .cls-15 {
        filter: url(#Exclusion_2);
      }
    </style>
    <filter id="Exclusion_2" x="0" y="-12.001" width="1002" height="1524.002" filterUnits="userSpaceOnUse">
      <feOffset dx="40" input="SourceAlpha"/>
      <feGaussianBlur stdDeviation="4" result="blur"/>
      <feFlood flood-opacity="0.149"/>
      <feComposite operator="in" in2="blur"/>
      <feComposite in="SourceGraphic"/>
    </filter>
    <clipPath id="clip-traka_3-2">
      <rect width="990" height="1500"/>
    </clipPath>
  </defs>
  <g id="traka_3-2" class="cls-1">
    <rect class="cls-14" width="990" height="1500"/>
    <g id="dan-3-2-remake1" transform="translate(-379 -249)">
      <g class="cls-15" transform="matrix(1, 0, 0, 1, 379, 249)">
        <path id="Exclusion_2-2" data-name="Exclusion 2" class="cls-2" d="M-5730,404h-10V379a15.017,15.017,0,0,0-15-15h-125a15.017,15.017,0,0,0-15,15v25h-10V212a9.936,9.936,0,0,0-2.928-7.071A9.935,9.935,0,0,0-5915,202h-580a10.011,10.011,0,0,0-10,10V404h-10V379a15.016,15.016,0,0,0-15-15h-125a15.017,15.017,0,0,0-15,15v25h-10V-1096l10,0v25a15.018,15.018,0,0,0,15,15h125a15.017,15.017,0,0,0,15-15v-25h10v170a10.011,10.011,0,0,0,10,10h580a10.011,10.011,0,0,0,10-10v-170h10v25a15.018,15.018,0,0,0,15,15h125a15.018,15.018,0,0,0,15-15v-25h10V404Zm-150-176a15.017,15.017,0,0,0-15,15v50a15.017,15.017,0,0,0,15,15h125a15.017,15.017,0,0,0,15-15V243a15.018,15.018,0,0,0-15-15Zm-775,0a15.018,15.018,0,0,0-15,15v50a15.017,15.017,0,0,0,15,15h125a15.016,15.016,0,0,0,15-15V243a15.017,15.017,0,0,0-15-15Zm775-137a15.017,15.017,0,0,0-15,15v50a15.018,15.018,0,0,0,15,15h125a15.018,15.018,0,0,0,15-15V106a15.017,15.017,0,0,0-15-15Zm-775,0a15.017,15.017,0,0,0-15,15v50a15.018,15.018,0,0,0,15,15h125a15.017,15.017,0,0,0,15-15V106a15.016,15.016,0,0,0-15-15Zm160-967a10.011,10.011,0,0,0-10,10V152a10.011,10.011,0,0,0,10,10h580a10.011,10.011,0,0,0,10-10V-866a9.936,9.936,0,0,0-2.928-7.071A9.935,9.935,0,0,0-5915-876Zm615,831a15.018,15.018,0,0,0-15,15V20a15.017,15.017,0,0,0,15,15h125a15.017,15.017,0,0,0,15-15V-30a15.018,15.018,0,0,0-15-15Zm-775,0a15.018,15.018,0,0,0-15,15V20a15.017,15.017,0,0,0,15,15h125a15.016,15.016,0,0,0,15-15V-30a15.017,15.017,0,0,0-15-15Zm775-136a15.017,15.017,0,0,0-15,15v50a15.017,15.017,0,0,0,15,15h125a15.018,15.018,0,0,0,15-15v-50a15.017,15.017,0,0,0-15-15Zm-775,0a15.017,15.017,0,0,0-15,15v50a15.018,15.018,0,0,0,15,15h125a15.017,15.017,0,0,0,15-15v-50a15.016,15.016,0,0,0-15-15Zm775-137a15.017,15.017,0,0,0-15,15v50a15.017,15.017,0,0,0,15,15h125a15.017,15.017,0,0,0,15-15v-50a15.017,15.017,0,0,0-15-15Zm-775,0a15.017,15.017,0,0,0-15,15v50a15.017,15.017,0,0,0,15,15h125a15.016,15.016,0,0,0,15-15v-50a15.016,15.016,0,0,0-15-15Zm775-136a15.018,15.018,0,0,0-15,15v50a15.017,15.017,0,0,0,15,15h125a15.017,15.017,0,0,0,15-15v-50a15.018,15.018,0,0,0-15-15Zm-775,0a15.018,15.018,0,0,0-15,15v50a15.017,15.017,0,0,0,15,15h125a15.016,15.016,0,0,0,15-15v-50a15.017,15.017,0,0,0-15-15Zm775-137a15.017,15.017,0,0,0-15,15v50a15.018,15.018,0,0,0,15,15h125a15.018,15.018,0,0,0,15-15v-50a15.017,15.017,0,0,0-15-15Zm-775,0a15.017,15.017,0,0,0-15,15v50a15.018,15.018,0,0,0,15,15h125a15.017,15.017,0,0,0,15-15v-50a15.016,15.016,0,0,0-15-15Zm775-136a15.018,15.018,0,0,0-15,15v50a15.017,15.017,0,0,0,15,15h125a15.017,15.017,0,0,0,15-15v-50a15.018,15.018,0,0,0-15-15Zm-775,0a15.018,15.018,0,0,0-15,15v50a15.017,15.017,0,0,0,15,15h125a15.016,15.016,0,0,0,15-15v-50a15.017,15.017,0,0,0-15-15Zm775-136a15.017,15.017,0,0,0-15,15v50a15.017,15.017,0,0,0,15,15h125a15.018,15.018,0,0,0,15-15v-50a15.017,15.017,0,0,0-15-15Zm-775,0a15.017,15.017,0,0,0-15,15v50a15.018,15.018,0,0,0,15,15h125a15.017,15.017,0,0,0,15-15v-50a15.016,15.016,0,0,0-15-15Zm775-137a15.017,15.017,0,0,0-15,15v50a15.017,15.017,0,0,0,15,15h125a15.017,15.017,0,0,0,15-15v-50a15.018,15.018,0,0,0-15-15Zm-775,0a15.018,15.018,0,0,0-15,15v50a15.017,15.017,0,0,0,15,15h125a15.016,15.016,0,0,0,15-15v-50a15.017,15.017,0,0,0-15-15Z" transform="translate(6680 1096)"/>
      </g>
      <path id="Rectangle_62" data-name="Rectangle 62" class="cls-3" d="M0,0H600a0,0,0,0,1,0,0V170a10,10,0,0,1-10,10H10A10,10,0,0,1,0,170V0A0,0,0,0,1,0,0Z" transform="translate(554 249)"/>
      <rect id="Rectangle_63" data-name="Rectangle 63" class="cls-3" width="600" height="1038" rx="10" transform="translate(554 469)"/>
      <g id="vreme" transform="translate(81 931)">
        <text id="od_22:00_" data-name="od 22:00 " class="cls-4" transform="translate(385 419)"><tspan x="-51.208" y="0">od 22:00 </tspan></text>
        <text id="h" class="cls-5" transform="translate(429 386)"><tspan x="1.707" y="15">h</tspan></text>
      </g>
      <path id="Rectangle_64" data-name="Rectangle 64" class="cls-3" d="M10,0H590a10,10,0,0,1,10,10V202a0,0,0,0,1,0,0H0a0,0,0,0,1,0,0V10A10,10,0,0,1,10,0Z" transform="translate(554 1547)"/>
      <text id="CEREMONIJA_ZATVARANJA_FESTIVALA_DODELA_NAGRADA" data-name="CEREMONIJA ZATVARANJA 
FESTIVALA – DODELA NAGRADA" class="cls-6" transform="translate(847.5 644.127)"><tspan x="-201.482" y="0">CEREMONIJA ZATVARANJA </tspan><tspan x="-234.894" y="34">FESTIVALA – DODELA NAGRADA</tspan></text>
      <text id="PAUZA" class="cls-6" transform="translate(781 364.263)"><tspan x="23.632" y="28">PAUZA</tspan></text>
      <text id="ŽURKA_KOKTEL_POVODOM_ZATVARANJA_FESTIVALA" data-name="ŽURKA/KOKTEL 
POVODOM ZATVARANJA 
FESTIVALA" class="cls-6" transform="translate(847 1312)"><tspan x="-120.994" y="0">ŽURKA/KOKTEL </tspan><tspan x="-179.372" y="34">POVODOM ZATVARANJA </tspan><tspan x="-81.378" y="68">FESTIVALA</tspan></text>
      <text id="PROJEKCIJE_NAGRAÐENIH_FILMOVA" data-name="PROJEKCIJE NAGRAÐENIH FILMOVA" class="cls-7" transform="translate(854 793)"><tspan x="-237.75" y="0">PROJEKCIJE NAGRAÐENIH FILMOVA</tspan></text>
      <text id="_NAJBOLJI_ANIMIRANI_FILM_NAJBOLJI_KRATKI_IGRANI_FILM_NAJBOLJI_DOKUMENTARNI_FILM_SPECIJALNO_PRIZNANJE_jedan_kratki_igrani_dokumentarni_ili_animirani_film_" data-name="
NAJBOLJI ANIMIRANI FILM

NAJBOLJI KRATKI IGRANI FILM

NAJBOLJI DOKUMENTARNI 
FILM

SPECIJALNO PRIZNANJE 
(jedan kratki igrani, dokumentarni ili animirani film)" class="cls-8" transform="translate(847 883)"><tspan x="0" y="0"></tspan><tspan class="cls-9"><tspan x="-153.933" y="28">NAJBOLJI ANIMIRANI FILM</tspan><tspan x="0" y="56"></tspan><tspan x="-178.022" y="84">NAJBOLJI KRATKI IGRANI FILM</tspan><tspan x="0" y="112"></tspan><tspan x="-157.248" y="140">NAJBOLJI DOKUMENTARNI </tspan><tspan x="-27.911" y="168">FILM</tspan><tspan x="0" y="196"></tspan><tspan x="-144.347" y="224">SPECIJALNO PRIZNANJE</tspan><tspan class="cls-10" y="224"> </tspan></tspan><tspan class="cls-11"><tspan x="-221.49" y="252">(jedan kratki igrani, dokumentarni ili animirani film)</tspan></tspan></text>
      <g id="Group_5" data-name="Group 5" transform="translate(377 109)">
        <text id="_19:00_-20:00_" data-name="19:00 -20:00 " class="cls-12" transform="translate(89 286)"><tspan x="-64.372" y="0">19:00 -20:00 </tspan></text>
        <text id="h-2" data-name="h" class="cls-13" transform="translate(153 272)"><tspan x="-4.424" y="0">h</tspan></text>
        <text id="h-3" data-name="h" class="cls-13" transform="translate(84 272)"><tspan x="-4.424" y="0">h</tspan></text>
      </g>
      <g id="Group_7" data-name="Group 7" transform="translate(377 377)">
        <text id="_20:00_-22:00_" data-name="20:00 -22:00 " class="cls-12" transform="translate(89 286)"><tspan x="-64.372" y="0">20:00 -22:00 </tspan></text>
        <text id="h-4" data-name="h" class="cls-13" transform="translate(153 272)"><tspan x="-4.424" y="0">h</tspan></text>
        <text id="h-5" data-name="h" class="cls-13" transform="translate(84 272)"><tspan x="-4.424" y="0">h</tspan></text>
      </g>
    </g>
  </g>
</svg>
